<?xml version="1.0" encoding="UTF-8"?>
<svg id="Layer_2" data-name="Layer 2" xmlns="http://www.w3.org/2000/svg" viewBox="0 0 2319.24 542.5">
  <defs>
    <style>
      .cls-1 {
        fill: #FFFFFF;
      }
    </style>
  </defs>
  <g id="Layer_1-2" data-name="Layer 1">
    <g>
      <path class="cls-1" d="M1745.45,230.31c24.51-17.52,53.2-29.75,83.05-29.75h151.56s-153.06,116.36-153.06,116.36c-38.59,29.34-35.27,53.08-48.2,97.41l285.36.08,21.94-88.85-238.79-.3,164.87-125.27,105.52-.04,16.25-66.21,161.49-123.75c4.72-3.62,12.99-2.5,16.56,1.33,4.91,5.26,8.66,13.67,6.72,21.71l-76.46,315.36-46.58,194.02-85.89.02-52.84-101.66-136.16,101.73-227.97-.05c-33.06-3.59-59.6-21.58-72.1-51.75-7.05-18.92-8.24-39.04-3.14-58.85l20.95-81.44c7.3-28.38,23.29-54.92,45.86-73.5,20.07-16.51,39.2-30.96,61.07-46.59Z"/>
      <path class="cls-1" d="M134.06,227.8c29.88-19.62,61.65-28.21,96.48-28.03l135.18.7-155.22,117.84c-35.76,27.15-34.18,55.19-45.92,96.03l252.86.04,21.86-88.66-205.97-1.02,163.52-124.33,74.69-.63,16.34-66.04L652.15,8.52c5.04-2.36,14.04,2.13,16.21,5.62s5.96,11.14,4.52,17.08l-110.52,454.89-13.51,56.3h-85.87s-52.57-101.77-52.57-101.77l-135.87,101.85-195.36-.9c-52.19-.24-87.18-48.35-77.57-98.69,6.05-31.7,14.13-61.25,22.84-92.74,8.13-29.36,23.91-57.23,47.94-75.5l61.69-46.88Z"/>
      <path class="cls-1" d="M823.39,340.1c.72,15.18-17.98,57.2-10.21,68.32,1.76,2.52,7.53,5.96,11.41,5.96l183.59-.03c18.34-1.97,32.7-12.02,38.72-29.44l48.4-201.83,194.89-146.54-95.15,394.92c-14.88,57.72-64.64,109.59-126.83,109.7l-345.05.64c-38.91.07-69.8-27.65-81.16-64.08l181.39-137.62Z"/>
      <path class="cls-1" d="M1490.85,173.13c-6.75,5.48-10.46,12.74-12.45,21.98l-84.58,347.34-159.98.05,91.01-377.28c4.83-19.85,13.61-36.28,29.27-49.16l102.05-83.9c25.05-17.61,52.64-31.74,84.46-31.74l263.06.02-150.77,132.15-102.68-.11c-7.96,1.3-15.43,5.04-21.64,10.01l-37.75,30.65Z"/>
      <path class="cls-1" d="M831.63,308.81l-190.19,144.11c-.94-11.56.94-22.06,3.72-34.31L746.37.16l159.44-.07-74.17,308.72Z"/>
      <path class="cls-1" d="M448.49,132.49H82.68S176.23,18.47,176.23,18.47C186.38,8.95,196.21,1.07,210.78.09l407.12.25-169.41,132.15Z"/>
      <path class="cls-1" d="M2084.44,132.49l-357.08-.04,122.08-114.53c10.79-8.99,20.8-15.96,35.3-17.82l370.87.23-171.18,132.16Z"/>
      <path class="cls-1" d="M1294.62,8.43l-191.86,143.67L1139.3.29l157.61-.29c-.16,2.58-.73,4.35-2.29,8.43Z"/>
    </g>
  </g>
</svg>