<?xml version="1.0" encoding="UTF-8"?>
<svg id="Layer_2" data-name="Layer 2" xmlns="http://www.w3.org/2000/svg" viewBox="0 0 1929.2 586.37">
  <defs>
    <style>
      .cls-1 {
        fill: #bdbdbd;
      }
    </style>
  </defs>
  <g id="Layer_1-2" data-name="Layer 1">
    <g>
      <g>
        <path class="cls-1" d="M1688.93,430.62l-38.41-38.85c-2.39-2.42-3.74-5.68-3.74-9.08l-.16-113.64c0-7.15,5.78-12.96,12.94-12.96l181.98-.14c7.09,0,12.86-5.72,12.93-12.81l.16-14.92c.03-2.57-5.26-7.55-7.51-7.55l-187.26-.16c-7.15,0-12.95-5.81-12.93-12.97l.07-42.67c.01-7.14,5.8-12.92,12.94-12.93l215.69-.03c3.43,0,6.72,1.36,9.14,3.78l40.62,40.51c2.44,2.43,3.81,5.74,3.8,9.18l-.27,216.01c0,7.14-5.8,12.93-12.94,12.93l-47.94.03c-7.06,0-12.82-5.65-12.95-12.7h0c-.25-13.34-18.07-17.63-24.36-5.86l-6.26,11.71c-2.25,4.21-6.63,6.84-11.4,6.84l-114.93.14c-3.46,0-6.79-1.38-9.22-3.84ZM1854.68,351.87l.09-18.05c.04-7.17-5.76-13-12.93-13.01l-107.98-.14c-7.09,0-12.87,5.69-12.96,12.78l-.3,22.75c-.04,3.13,5.85,8.67,9.46,8.66l111.68-.11c7.12,0,12.9-5.76,12.93-12.88Z"/>
        <path class="cls-1" d="M789.81,430.61l-39.5-39.08c-2.47-2.45-3.86-5.78-3.86-9.26v-113.27c0-7.19,5.82-13.02,13.01-13.02l181.37-.06c7.03,0,12.79-5.59,13.01-12.62l.35-11.34c.18-5.87-5.45-11.34-11.73-11.34l-182.91-.06c-7.2,0-13.04-5.85-13.02-13.06l.12-42.52c.02-7.18,5.84-12.98,13.02-12.98h215.39c3.46-.01,6.77,1.36,9.21,3.81l40.17,40.2c2.44,2.44,3.81,5.76,3.81,9.21l-.09,215.85c0,7.17-5.81,12.99-12.98,13.02l-47.99.16c-7.13.02-12.95-5.69-13.06-12.81h0c-.21-13.38-18.04-17.77-24.45-6.03l-6.53,11.96c-2.28,4.17-6.65,6.78-11.41,6.78l-112.76.22c-3.44,0-6.74-1.35-9.18-3.77ZM954.01,351.43l-.21-17.97c-.08-7.13-5.88-12.87-13.01-12.87l-107.06-.05c-7.18,0-13.01,5.8-13.03,12.98l-.07,22.87c-.01,3.61,6.34,8.25,10.26,8.25l110.11-.04c7.25,0,13.1-5.92,13.02-13.17Z"/>
        <path class="cls-1" d="M1296.31,152.01l47.07.14c7.18.02,12.99,5.85,12.98,13.03l-.05,216.67c0,3.42-1.35,6.71-3.76,9.15l-38.99,39.48c-2.45,2.48-5.79,3.88-9.28,3.87l-178.54-.13c-3.49,0-6.84-1.41-9.29-3.9l-37.87-38.58c-2.39-2.43-3.73-5.7-3.73-9.11l-.15-217.47c0-7.2,5.83-13.03,13.03-13.03h47.48c7.19.01,13.02,5.84,13.02,13.04v188.67c-.01,5.97,4.58,11,10.42,11l113.79.02c4.26,0,10.63-3.96,10.64-8.82l.15-191c0-7.2,5.86-13.03,13.06-13.01Z"/>
        <path class="cls-1" d="M1613.6,220.58l-124.84.14c-6.86,0-12.42,5.58-12.42,12.44l.16,188.7c0,6.86-5.54,12.42-12.4,12.44l-49.15.12c-6.87.02-12.45-5.54-12.46-12.41l-.33-215.97c0-3.22,1.24-6.32,3.48-8.64l39.85-41.36c2.32-2.41,5.52-3.78,8.86-3.81l9.41-.07c6.79-.05,12.37,5.37,12.52,12.16h0c.28,12.84,17.47,16.87,23.43,5.5l5.8-11.06c2.14-4.09,6.37-6.65,10.99-6.66l96.93-.17c6.86-.01,12.43,5.53,12.45,12.39l.13,43.77c.02,6.87-5.54,12.46-12.42,12.47Z"/>
      </g>
      <g>
        <path class="cls-1" d="M421.81,389.87c.02,8.26-6.28,15.93-14.72,15.93l-36.12.03c-5.19,0-8.87-4.25-8.9-9.2l-.06-11.68c0-1.29-1.76-3.46-2.89-3.89-1.19-.46-3.68.07-4.73,1.09l-20.18,19.8c-2.74,2.69-7.12,3.95-11.13,3.94l-75.81-.16c-5.95-.01-11.03-4.34-14.89-8.2l-29.68-29.72c-4.05-4.06-6.29-9.53-6.29-15.43v-75.98c0-4.77,2.3-8.81,5.4-11.93l19.95-20c1.1-1.1,1.63-3.72,1.23-5.14-.35-1.22-2.57-2.72-4.04-2.74l-13.9-.16c-4.5-.05-8.59-4.68-8.59-9.26l-.02-31.22c0-8.77,7.23-15.5,15.83-15.49l35.55.05c4.48,0,8.12,3.79,8.18,8.14l.16,11.33c.02,1.23,1.58,3.28,2.6,3.82,1.26.67,4.05.03,5.15-1.05l18.01-17.67c2.36-2.32,6.43-4.6,10.02-4.59l78.2.02c5.14,0,10.25,2.56,13.73,6.03l31.22,31.08c4.29,4.27,6.76,9.83,6.76,16.08l-.02,75.24c0,4.76-1.97,9.23-5.16,12.47l-20.84,21.12c-.86.87-1.15,3.72-.71,4.81s2.57,2.59,3.83,2.58l12.55-.06c5.56-.02,10.23,3.9,10.24,9.82l.06,30.2ZM271.36,349.92l77.07-.07c7.45,0,13.66-5.76,13.65-13.46l-.04-87.58c0-.21-.02-.42-.05-.63-1.12-6.3-5.39-11.56-12.13-11.58l-53.54-.09c-2.5,0-5.63,1.25-7.33,2.93l-29.77,29.51c-1.95,1.94-3.17,4.66-3.17,7.48l.03,59.98c0,.16,0,.32.03.48,1.03,8.06,6.86,13.04,15.25,13.03Z"/>
        <g>
          <path class="cls-1" d="M449.89,540c33.97-20.56,62.71-48.06,84.5-81.31,8.52-13,15.01-26.4,21.09-40.64.57-1.34,2.37-2.76,3.51-2.95,1.5-.25,3.75.92,4.92,2.12l21.07,21.54c2.54,2.6,2.13,6.26.53,9.57-28.94,59.82-77.08,106.46-136.08,136.65-4.34,2.22-9.81,1.94-13.04-2.08l-42.27-52.62c-.84-1.04-2.21-1.49-3.51-1.16-10.35,2.64-19.52,8.3-30.08,8.3h-102.5c-10.59,0-19.9-5.37-30.18-8.38-1.33-.39-2.77.05-3.63,1.13l-42.12,52.63c-3.33,4.16-8.89,4.43-13.42,2.1-58.93-30.23-107.42-77.25-136.18-137.2-1.71-3.56-1.27-6.86,1.26-9.46l21.08-21.72c.91-.93,3.51-1.55,4.8-1.23,1.15.28,2.58,1.73,3.2,3.21,6.87,16.5,15.06,31.79,25.37,46.47,21.43,30.54,48.44,55.9,80.39,75.06,3.52,2.11,7.39.99,9.91-1.99l26.83-31.8c2.02-2.39,5.22-3.27,8.04-2.14,10,3.99,19.82,7.41,30.21,10.21,4.01,1.08,7.96-.38,10.6-3.4l24.26-27.73c1.93-2.2,4.61-3.24,7.69-2.87,15.57,1.9,30.65,2,46.18-.02,2.09-.27,5.22.24,6.58,1.78l25.78,29.29c2.29,2.6,6.28,3.95,9.67,3.05,10.69-2.82,20.61-6.34,30.86-10.47,2.61-1.05,5.71-.02,7.54,2.14l27.51,32.46c2.38,2.81,6.34,3.44,9.59,1.47Z"/>
          <path class="cls-1" d="M341.54,43.01l-7.96,11.34c-1.47,2.09-4.15,3.37-6.87,3.23-18.67-1.01-36.72-.62-55.16,2.08-2.33.34-4.5,2.61-6.46,4.17-.4.32-.87.52-1.36.62-17.18,3.58-33.62,8.23-49.69,15.33-3.19,1.41-6.67.53-8.2-2.7l-11.31-23.91c-1.48-3.12.79-6.48,3.52-7.72,11.31-5.13,22.48-9.11,34.43-12.55,2.2-.63,4.58-2.27,5.69-4.26l9.91-17.74c2.66-4.76,6.74-6.83,12.1-7.55,32.79-4.45,65.48-4.46,98.27.03,5.84.8,9.89,3.4,12.67,8.44l9.07,16.39c1.36,2.45,3.77,4.17,6.54,4.97,11.7,3.38,22.75,7.29,33.84,12.23,3.19,1.42,4.81,4.96,3.24,8.21l-11.27,23.33c-1.36,2.81-4.46,4.35-7.58,3.01-15.51-6.68-31.26-11.56-47.81-14.95-3.65-.75-6.5-3.45-6.51-7.35l-.03-10.99c0-2.25-1.15-4.32-3.12-5.15-1.55-.66-4.72-.26-5.95,1.49Z"/>
          <path class="cls-1" d="M71.58,409.47c-1.75-4.48-5.69-6.28-9.95-4.92l-12.67,4.05c-1.93.62-5.61.61-7.37-.67l-28.01-20.43c-3.42-2.5-5.81-5.88-6.7-10.31-9.06-44.96-9.25-91.02-.08-135.93.96-4.7,2.76-8.23,6.58-10.99l28.21-20.35c1.72-1.24,5.24-1.68,7.04-1.06l13.09,4.5c3.54,1.22,7.36-.28,8.99-3.93,6.36-14.24,13.2-27.94,21.95-41.33,1.48-2.26,4.92-1.99,5.96.5.92,2.22,1.4,4.57,1.25,6.86-.04.51-.22,1.01-.49,1.45-14.46,23.45-25.2,48.15-31.6,74.87-.2.83-.7,1.55-1.41,2.03l-19.35,12.92c-2.71,1.81-4.66,4.05-4.96,7.55-2.61,23.45-2.61,46.57.07,70.03.27,2.36,1.69,4.69,3.53,5.87l19.5,12.59c1.59,1.03,2.64,3.36,3.15,5.4,6.83,27.3,17.16,53.18,32.3,76.86,3.41,5.34,4.34,7.34,2.49,12.17-.97,2.52-4.36,2.96-5.93.77-10.72-15-18.78-31.1-25.58-48.51Z"/>
          <path class="cls-1" d="M546.57,409.68c-6.81,17.3-14.83,33.33-25.36,48.07-1.54,2.16-4.86,1.77-5.89-.68h0c-1.6-3.83-.87-7.07,1.31-10.46,15.59-24.21,26.55-50.66,33.4-78.69.52-2.14,1.76-4.15,3.41-5.23l19.39-12.65c1.79-1.17,3.19-3.65,3.44-5.91,2.56-22.88,2.64-45.47.31-68.41-.28-2.78-1.13-6.11-3.31-7.57l-21.27-14.22c-.7-.47-1.2-1.19-1.4-2.02-6.47-26.7-16.96-51.55-31.5-74.93-.29-.47-.48-1-.5-1.55-.1-2.29.36-4.55,1.28-6.78,1.04-2.49,4.5-2.75,5.97-.48,8.43,12.97,15.08,26.41,21.36,40.5,1.28,2.87,4.54,6.01,7.83,4.98l16.1-5.05c2.09-.66,5.7,1.29,7.46,2.56l26.15,18.85c3.92,2.82,5.85,6.51,6.84,11.37,9.13,44.84,8.8,90.71-.13,135.61-.88,4.43-3.06,7.84-6.52,10.37l-27.68,20.2c-2.25,1.64-5.7,1.69-8.2.9l-12.78-4.01c-4.19-1.32-7.99.86-9.7,5.22Z"/>
          <path class="cls-1" d="M555.09,198.33c-20.17-48.09-52.65-85.49-95.4-114.97-2.2-1.51-6.31-1.06-7.85.82l-8.84,10.81c-2.15,2.62-5.67,2.89-8.41,1.17l-11.3-7.11c-1.36-.85-1.14-4.55-.33-6.04l23.71-43.56c2.16-3.97,6.71-4.66,10.45-2.66,19.95,10.63,37.96,23.33,55.14,38.1,30.68,26.4,55.69,58.24,73.28,94.65,1.7,3.51,1.14,6.83-1.35,9.43l-20.59,21.44c-.9.93-3.41,1.58-4.66,1.38s-3.13-1.73-3.85-3.45Z"/>
          <path class="cls-1" d="M158.61,83.43c-43.12,29.57-75.04,66.91-95.31,114.75-.73,1.73-2.4,3.3-3.67,3.58-1.44.32-4.03-.36-5.12-1.5l-20.94-21.87c-2-2.09-2.29-5.8-.93-8.59,18.3-37.62,44.29-70.44,76.39-97.37,16.42-13.78,33.57-25.68,52.47-35.69,3.51-1.86,7.91-1.55,10.01,2.3l24.16,44.44c1.48,2.72.05,5.4-2.13,6.72l-10.01,6.03c-2.63,1.59-5.95,1.48-8.05-1.09l-8.51-10.39c-1.74-2.12-5.52-3.27-8.36-1.33Z"/>
          <path class="cls-1" d="M510.33,371.16l-27.05-26.92c-1.69-1.69-3.71-5.05-3.39-7.48,2.31-17.85,2.76-35.22.05-53.09-.56-3.66.41-6.98,3.08-9.63l26.14-25.92c3.39-3.36,4.95-7.25,3.3-11.97-2.5-7.14-5.07-13.89-8.06-20.99-.59-1.39.17-3.59,1.18-4.56l7.54-7.27c.69-.66,2.63-1.42,3.57-1.37,1.09.06,2.93,1.47,3.51,2.7,7.93,16.77,13.76,33.6,17.91,51.8.06.25.09.51.09.78v102.04c.01.24-.01.47-.06.7-3.73,18.29-9.67,35.11-17.09,52.06-.7,1.61-2.39,3.2-3.65,3.49-1.63.37-4.15-.44-5.2-1.49l-6.67-6.72c-.96-.97-1.57-3.08-1-4.46,3.22-7.78,5.93-14.97,8.33-23.02.83-2.79-.35-6.5-2.53-8.67Z"/>
          <path class="cls-1" d="M135.65,343.54l-27.37,27.23c-2.44,2.42-3.71,5.92-2.67,9.3,2.35,7.67,5.21,15.32,8.05,22.29.46,1.13.25,3.78-.47,4.51l-7.18,7.24c-2.49,2.27-5.87,1.92-7.83-.69-.14-.19-.26-.41-.36-.63-7.82-16.91-13.79-34.08-17.61-52.52-.05-.24-.07-.48-.07-.72l.02-101.69c0-.24.03-.49.08-.73,3.97-18.63,10.09-35.88,18.24-52.87.12-.24.25-.48.43-.69,1.76-2.06,4.86-2.14,6.64-.06l7.46,7.18c.97.93,1.68,3.18,1.11,4.5-3.27,7.63-6.02,14.74-8.76,22.49-.11.31-.19.65-.2.98-.15,3.45,1.02,6.38,3.5,8.84l26.79,26.71c2.54,2.53,3.43,5.77,2.92,9.37-2.39,17.02-2.46,33.61.01,50.64.46,3.13-.19,6.79-2.7,9.29Z"/>
          <path class="cls-1" d="M371.96,502.28l-19.81-22.5c-.73-.83-1.16-3.37-.95-4.45.2-1.02,1.57-2.58,2.67-2.9l19.32-5.58c35.93-10.38,65.56-35.9,83.03-69.06,6.65-12.62,10.72-25.6,14.13-39.33.37-1.49,1.69-3.22,2.76-3.71,1.35-.62,4.3-.22,5.41.86l22.27,21.81c2.52,2.47,2.63,5.54,1.54,8.77-10.43,31-28.8,58.09-53.35,79.75-20.42,18.02-43.83,31.29-70.14,38.51-2.12.58-5.33-.44-6.87-2.17Z"/>
          <path class="cls-1" d="M247.21,501.36c-2.22,2.52-5.48,3.78-8.59,2.9-47.57-13.48-87.84-47.79-111.09-91.02-4.75-8.83-8.05-17.57-11.59-26.84-1.22-3.2-.78-6.69,1.76-9.16l21.61-21.08c1.39-1.35,3.86-2.2,5.78-1.51,1.35.49,2.8,2.57,3.24,4.6,5.47,25.1,16.21,48,33.51,67.1,16.86,18.62,38.06,32.2,61.86,40.11,6.78,2.25,12.98,3.73,19.95,5.65,1.28.35,2.92,1.75,3.31,2.79.52,1.39.07,3.99-.92,5.11l-18.82,21.37Z"/>
        </g>
      </g>
    </g>
  </g>
</svg>