<?xml version="1.0" encoding="UTF-8"?>
<svg id="Layer_2" data-name="Layer 2" xmlns="http://www.w3.org/2000/svg" viewBox="0 0 1174.05 295.04">
  <title>AURA logo wordmark</title>
  <defs>
    <style>
      .cls-1 {
        fill: #fff;
      }
    </style>
  </defs>
  <g id="Light_Logo" data-name="Light Logo">
    <g id="light-wordmark-logo">
      <g id="wordmark">
        <g>
          <path class="cls-1" d="M970.96,133.03c8.68-6.2,18.83-10.53,29.4-10.53h53.65s-54.18,41.18-54.18,41.18c-13.66,10.38-12.48,18.79-17.06,34.48l101,.03,7.77-31.45-84.52-.11,58.36-44.34,37.35-.02,5.75-23.44,57.16-43.8c1.67-1.28,4.6-.88,5.86.47,1.74,1.86,3.07,4.84,2.38,7.68l-27.06,111.62-16.49,68.67h-30.4s-18.7-35.97-18.7-35.97l-48.2,36.01-80.69-.02c-11.7-1.27-21.1-7.64-25.52-18.32-2.49-6.7-2.92-13.82-1.11-20.83l7.42-28.83c2.58-10.04,8.24-19.44,16.23-26.01,7.1-5.84,13.87-10.96,21.62-16.49Z"/>
          <path class="cls-1" d="M400.6,132.14c10.57-6.94,21.82-9.99,34.15-9.92l47.85.25-54.94,41.71c-12.66,9.61-12.1,19.53-16.25,33.99h89.5s7.74-31.37,7.74-31.37l-72.9-.36,57.88-44.01,26.44-.22,5.78-23.37,58.15-44.31c1.78-.84,4.97.75,5.74,1.99s2.11,3.94,1.6,6.05l-39.12,161.01-4.78,19.93h-30.39s-18.61-36.02-18.61-36.02l-48.09,36.05-69.15-.32c-18.47-.09-30.86-17.11-27.46-34.93,2.14-11.22,5-21.68,8.09-32.83,2.88-10.39,8.46-20.26,16.97-26.72l21.83-16.59Z"/>
          <path class="cls-1" d="M644.59,171.89c.25,5.37-6.36,20.25-3.61,24.18.62.89,2.67,2.11,4.04,2.11h64.98c6.49-.71,11.57-4.27,13.7-10.43l17.13-71.44,68.98-51.87-33.68,139.78c-5.27,20.43-22.88,38.79-44.89,38.83l-122.13.23c-13.77.03-24.71-9.79-28.73-22.68l64.2-48.71Z"/>
          <path class="cls-1" d="M880.84,112.79c-2.39,1.94-3.7,4.51-4.41,7.78l-29.94,122.94-56.63.02,32.21-133.54c1.71-7.02,4.82-12.84,10.36-17.4l36.12-29.7c8.87-6.23,18.63-11.23,29.89-11.23h93.11s-53.36,46.78-53.36,46.78l-36.34-.04c-2.82.46-5.46,1.78-7.66,3.54l-13.36,10.85Z"/>
          <path class="cls-1" d="M647.51,160.82l-67.32,51.01c-.33-4.09.33-7.81,1.32-12.15l35.82-148.11,56.43-.02-26.25,109.27Z"/>
        </g>
        <path class="cls-1" d="M511.89,98.41h-129.48s33.11-40.36,33.11-40.36c3.59-3.37,7.07-6.16,12.23-6.51l144.1.09-59.96,46.78Z"/>
        <path class="cls-1" d="M1090.95,98.41l-126.39-.02,43.21-40.54c3.82-3.18,7.36-5.65,12.49-6.31l131.27.08-60.59,46.78Z"/>
        <path class="cls-1" d="M811.38,54.49l-67.91,50.85,12.93-53.73,55.79-.1c-.06.91-.26,1.54-.81,2.98Z"/>
      </g>
      <g id="logo">
        <path class="cls-1" d="M36.41,210.33c36.1,29.74,105.41-9.51,143.03-29.63l-11.48,21.04c20.39-13.18,26.65-29.88,49.62-52.57,28.33-27.98,60.96-59.82,61.13-101.09.07-17.07-10.12-29.32-26.83-33.52-18.08-4.54-36.55-.72-56.85.18,28.54-12.55,61.86-18.6,92.32-12.09,27.95,5.98,42.05,30.47,38,57.2-5.32,35.11-26.2,62.94-53.64,84.67-18.23,14.43-31.39,30.46-42.46,51.42-32.43,61.36-98.52,101.29-168.01,99.01C24.6,293.75-1,264.6.03,230.09c.88-29.69,11.58-56.82,28.23-79.05-2.84,23.49-9.32,44.89,8.15,59.29ZM277.44,125.03c17.36-16.85,20.74-41.21,16.82-62.59-1.01,22.89-7.72,40.84-16.82,62.59ZM23.27,255.08c20.87,37.55,103.35-.67,116.16-21.49-23.74,14-41.84,16.83-68.13,14.33l21.78,6.75c-21.77,12.24-46.03,10.53-69.82.41Z"/>
        <path class="cls-1" d="M200.45,64.64c-47.88,26.46-99.55,55.57-127.09,110.41-2.24,4.45-3.54,14.68-2.13,19.31s8.17,9.4,15.29,14.31c-15.43,1.67-37.61,1.72-46.62-16.2-7.06-14.03-3.8-33.7,3.23-47.61l23.72-46.95c7.51-14.87,19.79-28.37,36.46-35.36-6.92,11.4-13.57,19.89-19.36,33.52l44.88-33.93c24.94-18.86,57.84-34.96,89.09-38.47,4.19-.47,14.19,4.12,18.72,3.37,15.45-2.55,29.33,7.73,29.13,24.5-.11,9.02-3.77,20.64-6.61,29.07-1.33-7.97-2.26-15.64-4.16-21.6-5.37-16.77-45.43-11.98-64.74-4.75-22.15,8.29-42.86,17.94-60.37,33.18,25.12-7.45,43.21-24.56,70.59-22.8ZM64.02,155.81l26.66-39.8c-15.65,7.35-23.49,21.8-26.66,39.8Z"/>
        <path class="cls-1" d="M289.37,191.73c-13.38,37.62-41.06,41.13-76.12,64.82-12.93,8.74-25.4,16.94-41.33,20.44,26.61-20.86,48.2-42.07,65.16-70.66,41.05-69.23,76.03-60.2,98.92-144.13,3.02,41.07-11.17,84.07-40.23,111.68-10.3,9.78-29.07,10.05-31.88,26.82,8.3-5.21,16.18-9.39,25.47-8.97Z"/>
        <g>
          <path d="M23.27,255.08c23.79,10.13,48.05,11.83,69.82-.41l-21.78-6.75c26.28,2.5,44.39-.34,68.13-14.33-12.82,20.82-95.3,59.04-116.16,21.49Z"/>
          <path d="M277.44,125.03c9.1-21.76,15.81-39.7,16.82-62.59,3.92,21.38.54,45.75-16.82,62.59Z"/>
          <path d="M64.02,155.81c3.17-18,11.02-32.45,26.66-39.8l-26.66,39.8Z"/>
        </g>
      </g>
    </g>
  </g>
</svg>